HIERARCHY
ROOT SpineBase
{
  OFFSET 0.000000 0.000000 0.000000
  CHANNELS 6 Xposition Yposition Zposition Zrotation Xrotation Yrotation
  JOINT SpineMid
  {
    OFFSET -0.000000 31.660867 0.000000
    CHANNELS 3 Zrotation Xrotation Yrotation
    JOINT SpineShoulder
    {
      OFFSET 0.070731 23.570050 -0.785387
      CHANNELS 3 Zrotation Xrotation Yrotation
      JOINT Neck
      {
        OFFSET 0.048595 7.813164 -0.591082
        CHANNELS 3 Zrotation Xrotation Yrotation
        JOINT Head
        {
          OFFSET -6.027766 12.269582 1.929702
          CHANNELS 3 Zrotation Xrotation Yrotation
          End Site
          {
            OFFSET 0 0 0
          }
        }
      }
      JOINT ShoulderLeft
      {
        OFFSET -15.985902 -7.421978 6.931101
        CHANNELS 3 Zrotation Xrotation Yrotation
        JOINT ElbowLeft
        {
          OFFSET -0.929107 -28.125036 0.538345
          CHANNELS 3 Zrotation Xrotation Yrotation
          JOINT WristLeft
          {
            OFFSET 0.809062 -26.142861 -3.848300
            CHANNELS 3 Zrotation Xrotation Yrotation
            JOINT HandLeft
            {
              OFFSET -0.575184 -5.266828 0.220697
              CHANNELS 3 Zrotation Xrotation Yrotation
              JOINT HandTipLeft
              {
                OFFSET 0.878529 -8.757886 -2.191252
                CHANNELS 3 Zrotation Xrotation Yrotation
                End Site
                {
                  OFFSET 0 0 0
                }
              }
              JOINT ThumbLeft
              {
                OFFSET -1.463559 -1.509181 -0.452814
                CHANNELS 3 Zrotation Xrotation Yrotation
                End Site
                {
                  OFFSET 0 0 0
                }
              }
            }
          }
        }
      }
      JOINT ShoulderRight
      {
        OFFSET 14.545792 -1.389725 -6.781833
        CHANNELS 3 Zrotation Xrotation Yrotation
        JOINT ElbowRight
        {
          OFFSET 11.671345 -25.784594 -2.866243
          CHANNELS 3 Zrotation Xrotation Yrotation
          JOINT WristRight
          {
            OFFSET 4.571484 -19.532067 -6.720992
            CHANNELS 3 Zrotation Xrotation Yrotation
            JOINT HandRight
            {
              OFFSET 0.130795 -7.475042 -1.305919
              CHANNELS 3 Zrotation Xrotation Yrotation
              JOINT HandTipRight
              {
                OFFSET 0.169210 -7.462655 -1.987012
                CHANNELS 3 Zrotation Xrotation Yrotation
                End Site
                {
                  OFFSET 0 0 0
                }
              }
              JOINT ThumbRight
              {
                OFFSET -3.145676 -1.279996 -1.290877
                CHANNELS 3 Zrotation Xrotation Yrotation
                End Site
                {
                  OFFSET 0 0 0
                }
              }
            }
          }
        }
      }
    }
  }
  JOINT HipLeft
  {
    OFFSET -6.576496 0.212936 -1.142957
    CHANNELS 3 Zrotation Xrotation Yrotation
    JOINT KneeLeft
    {
      OFFSET -3.812922 -30.244223 -2.464734
      CHANNELS 3 Zrotation Xrotation Yrotation
      JOINT AnkleLeft
      {
        OFFSET 21.611765 -39.587470 3.670058
        CHANNELS 3 Zrotation Xrotation Yrotation
        JOINT FootLeft
        {
          OFFSET 0.588015 -8.144807 -6.018663
          CHANNELS 3 Zrotation Xrotation Yrotation
          End Site
          {
            OFFSET 0 0 0
          }
        }
      }
    }
  }
  JOINT HipRight
  {
    OFFSET 7.134331 1.782099 -5.736583
    CHANNELS 3 Zrotation Xrotation Yrotation
    JOINT KneeRight
    {
      OFFSET 9.924630 -35.240016 -14.412929
      CHANNELS 3 Zrotation Xrotation Yrotation
      JOINT AnkleRight
      {
        OFFSET 7.211384 -33.991943 -4.708900
        CHANNELS 3 Zrotation Xrotation Yrotation
        JOINT FootRight
        {
          OFFSET -3.879874 -3.406819 -13.118276
          CHANNELS 3 Zrotation Xrotation Yrotation
          End Site
          {
            OFFSET 0 0 0
          }
        }
      }
    }
  }
}
MOTION
Frames: 10
Frame Time: 0.033333
-27.500154 82.273842 347.431545 0.000000 0.000000 18.522728 -0.000000 0.000000 -18.522728 -0.000000 0.000000 0.000000 -0.000000 0.000000 0.000000 0.000000 0.000000 0.000000 -0.000000 0.000000 0.000000 -0.000000 0.000000 0.000000 -0.000000 0.000000 0.000000 -0.000000 0.000000 0.000000 0.000000 0.000000 0.000000 0.000000 0.000000 0.000000 -0.000000 0.000000 0.000000 -0.000000 0.000000 0.000000 -0.000000 0.000000 0.000000 -0.000000 0.000000 0.000000 0.000000 0.000000 0.000000 0.000000 0.000000 0.000000 -0.000000 0.000000 -18.522728 -0.000000 0.000000 0.000000 -0.000000 0.000000 0.000000 0.000000 0.000000 0.000000 -0.000000 0.000000 -18.522728 -0.000000 0.000000 0.000000 -0.000000 0.000000 0.000000 0.000000 0.000000 0.000000
-27.484873 82.288424 347.481910 0.012150 0.008271 18.565473 -0.014152 -0.003972 -18.565475 -0.000000 0.000000 0.000000 -0.000000 0.000000 0.000000 0.000000 0.000000 0.000000 -0.000000 0.000000 0.000000 -0.000000 0.000000 0.000000 3.169308 1.949367 -0.134507 -3.424535 -0.563439 0.224205 0.000000 0.000000 0.000000 0.000000 0.000000 0.000000 -0.000000 0.000000 0.000000 -0.000000 0.000000 0.000000 -1.505675 1.350574 0.303886 2.190759 -3.407420 -0.473588 0.000000 0.000000 0.000000 0.000000 0.000000 0.000000 -0.014152 -0.003972 -18.565475 -0.000000 0.000000 0.000000 -0.000000 0.000000 0.000000 0.000000 0.000000 0.000000 -0.014152 -0.003972 -18.565475 -0.000000 0.000000 0.000000 -0.000000 0.000000 0.000000 0.000000 0.000000 0.000000
-27.471801 82.300032 347.494056 0.037130 0.025388 18.540932 -0.043276 -0.012263 -18.540945 -0.000000 0.000000 0.000000 -0.000000 0.000000 0.000000 0.000000 0.000000 0.000000 -0.000000 0.000000 0.000000 -1.214933 -0.081725 0.175528 7.049296 3.651286 -0.517778 -6.535126 -1.076231 0.370551 0.000000 0.000000 0.000000 0.000000 0.000000 0.000000 -0.000000 0.000000 0.000000 -0.000000 0.000000 0.000000 -2.869196 2.408391 0.601883 4.015420 -6.193953 -0.799743 0.000000 0.000000 0.000000 0.000000 0.000000 0.000000 0.942599 -0.052564 -18.652407 -0.946987 -0.277118 0.109730 -0.000000 0.000000 0.000000 0.000000 0.000000 0.000000 -0.043276 -0.012263 -18.540945 -0.000000 0.000000 0.000000 -0.000000 0.000000 0.000000 0.000000 0.000000 0.000000
-27.460936 82.308668 347.467981 0.074942 0.051351 18.448960 -0.087341 -0.024996 -18.449013 -0.000000 0.000000 0.000000 0.402916 -0.664470 -0.387158 0.000000 0.000000 0.000000 -0.000000 0.000000 0.000000 -1.632066 -0.062734 0.237549 9.533997 4.905456 -0.789985 -9.260909 -1.532471 0.477774 0.000000 0.000000 0.000000 0.000000 0.000000 0.000000 -0.000000 0.000000 0.000000 -0.000000 0.000000 0.000000 -4.069136 3.156363 0.874909 5.480206 -8.360020 -1.025000 0.000000 0.000000 0.000000 0.000000 0.000000 0.000000 1.173051 -0.096690 -18.588831 -1.217500 -0.333818 0.137609 0.028205 0.872917 0.041729 0.000000 0.000000 0.000000 -0.087341 -0.024996 -18.449013 -0.000000 0.000000 0.000000 -0.000000 0.000000 0.000000 0.000000 0.000000 0.000000
-27.452278 82.314331 347.403686 0.125575 0.086154 18.289405 -0.146268 -0.042394 -18.289553 -0.000000 0.000000 0.000000 0.530727 -0.850852 -0.496988 0.000000 0.000000 0.000000 -0.000000 0.000000 0.000000 -1.896351 0.001926 0.279407 11.203589 5.736655 -0.997022 -11.541706 -1.933765 0.584190 0.000000 0.000000 0.000000 0.000000 0.000000 0.000000 -0.000000 0.000000 0.000000 0.766667 -0.183514 -0.305228 -5.875733 3.735982 1.429348 6.584920 -9.910824 -1.183381 0.000000 0.000000 0.000000 0.000000 0.000000 0.000000 1.244757 -0.151769 -18.439765 -2.001268 -0.791415 -0.166303 0.668511 1.443527 0.355761 0.000000 0.000000 0.000000 -0.146268 -0.042394 -18.289553 -0.000000 0.000000 0.000000 -0.000000 0.000000 0.000000 0.000000 0.000000 0.000000
-27.445828 82.317022 347.301170 0.189008 0.129781 18.062104 -0.219932 -0.064783 -18.062442 -0.000000 0.000000 0.000000 0.656132 -1.020734 -0.597976 0.000000 0.000000 0.000000 -0.000000 0.000000 0.000000 -1.991271 0.115267 0.298836 11.985161 6.124001 -1.099445 -13.320216 -2.281877 0.723418 0.000000 0.000000 0.000000 0.000000 0.000000 0.000000 -0.000000 0.000000 0.000000 0.740571 -0.300967 -0.323133 -6.677671 3.950986 1.639595 7.326479 -10.854070 -1.296871 0.000000 0.000000 0.000000 0.000000 0.000000 0.000000 1.159473 -0.218638 -18.205463 -1.920519 -0.871789 -0.235370 0.576311 1.601014 0.425139 0.000000 0.000000 0.000000 -0.219932 -0.064783 -18.062442 -0.000000 0.000000 0.000000 -0.000000 0.000000 0.000000 0.000000 0.000000 0.000000
-27.440863 82.320160 347.111245 0.274163 0.199734 17.592380 -0.321709 -0.107527 -17.593160 -0.000000 0.000000 0.000000 0.810764 -1.254342 -0.733597 0.000000 0.000000 0.000000 -0.000000 0.000000 0.000000 -2.069948 0.548851 0.331587 12.315229 6.200820 -1.144299 -17.703137 -3.787329 1.199662 0.000000 0.000000 0.000000 0.000000 0.000000 0.000000 -0.000000 0.000000 0.000000 0.590324 -0.491872 -0.315807 -7.499134 4.790758 1.909896 7.295668 -11.975288 -1.275350 0.000000 0.000000 0.000000 0.000000 0.000000 0.000000 0.867493 -0.270612 -17.711491 -1.455484 -1.007621 -0.345609 0.371204 1.806417 0.449052 0.000000 0.000000 0.000000 -0.321709 -0.107527 -17.593160 -0.000000 0.000000 0.000000 -0.000000 0.000000 0.000000 0.000000 0.000000 0.000000
-27.444194 82.316277 346.900760 0.358643 0.270862 17.167275 -0.422614 -0.152931 -17.168687 -0.000000 0.000000 0.000000 0.983654 -1.399732 -0.828466 0.000000 0.000000 0.000000 -0.000000 0.000000 0.000000 -1.887289 0.879277 0.319336 11.847191 5.155172 -0.918562 -18.272076 -2.521764 1.541671 0.000000 0.000000 0.000000 0.000000 0.000000 0.000000 -0.000000 0.000000 0.000000 0.386563 -0.676024 -0.289320 -7.732365 4.875870 1.995150 7.588578 -13.176737 -1.356419 0.000000 0.000000 0.000000 0.000000 0.000000 0.000000 0.399445 -0.419246 -17.233574 -0.801242 -0.953521 -0.450621 -0.091070 1.893080 0.596998 0.000000 0.000000 0.000000 -0.422614 -0.152931 -17.168687 -0.000000 0.000000 0.000000 -0.000000 0.000000 0.000000 0.000000 0.000000 0.000000
-27.439529 82.312082 346.680748 0.453156 0.342624 16.730362 -0.532608 -0.197662 -16.732636 -0.000000 0.000000 0.000000 1.081313 -1.464389 -0.873399 0.000000 0.000000 0.000000 -0.125118 -0.969018 0.028554 -0.917755 2.232237 0.190896 8.253229 3.252508 -0.502948 -15.756190 -2.118345 1.801754 0.000000 0.000000 0.000000 0.000000 0.000000 0.000000 -0.000000 0.000000 0.000000 0.142923 -0.833555 -0.243776 -7.648822 4.119701 1.931393 7.520235 -11.552529 -1.379962 0.000000 0.000000 0.000000 0.000000 0.000000 0.000000 -0.532608 -0.197662 -16.732636 0.400389 -1.063722 -0.538398 0.252658 4.755067 0.269720 0.000000 0.000000 0.000000 -0.532608 -0.197662 -16.732636 -0.000000 0.000000 0.000000 -0.000000 0.000000 0.000000 0.000000 0.000000 0.000000
-27.446660 82.299050 346.547409 0.544366 0.371061 16.578094 -0.627613 -0.200301 -16.580953 -0.000000 0.000000 0.000000 1.089973 -1.466988 -0.875867 0.000000 0.000000 0.000000 -0.164486 -1.164399 0.033639 -0.821086 2.084607 0.164472 8.206753 1.372978 -0.144013 -15.015078 -0.731642 1.712988 0.000000 0.000000 0.000000 0.000000 0.000000 0.000000 -0.000000 0.000000 0.000000 -0.133886 -0.964274 -0.181325 -7.010605 1.571827 1.597130 6.820929 -7.821630 -1.354673 0.000000 0.000000 0.000000 0.000000 0.000000 0.000000 -0.627613 -0.200301 -16.580953 0.609939 -1.095303 -0.533567 -0.569667 0.075863 0.440657 0.000000 0.000000 0.000000 -0.627613 -0.200301 -16.580953 -0.000000 0.000000 0.000000 -0.000000 0.000000 0.000000 0.000000 0.000000 0.000000
